<svg xmlns="http://www.w3.org/2000/svg" width="49.452" height="49.449" viewBox="0 0 49.452 49.449"><defs><style>.a{fill:#515151;}</style></defs><g transform="translate(0 0)"><path class="a" d="M48.89,6.311C48.385,6.054,36.511.017,31.937.017a1.045,1.045,0,0,0-.991.75C30.905.9,29.9,4.138,24.726,4.138S18.547.9,18.508.777a1.026,1.026,0,0,0-.993-.76C12.941.017,1.067,6.054.562,6.311A1.027,1.027,0,0,0,.02,7.43l2.06,10.3a1.041,1.041,0,0,0,1.073.826,56.469,56.469,0,0,0,5.8-.641,46.359,46.359,0,0,0-.715,9.723l0,1.222c0,3.783,2.009,11.283,2.1,11.6a1.03,1.03,0,0,0,1,.762,7.219,7.219,0,0,1,7.211,7.211,1.031,1.031,0,0,0,1.03,1.03h10.3a1.031,1.031,0,0,0,1.03-1.03,7.219,7.219,0,0,1,7.211-7.211,1.032,1.032,0,0,0,1-.762c.085-.317,2.1-7.817,2.1-11.6l.008-1.222a46.5,46.5,0,0,0-.715-9.723,56.439,56.439,0,0,0,5.8.641,1.062,1.062,0,0,0,1.073-.826l2.06-10.3A1.031,1.031,0,0,0,48.89,6.311ZM45.526,16.438a29.01,29.01,0,0,1-5.961-.882,1.03,1.03,0,0,0-1.422,1.172,42.5,42.5,0,0,1,1.008,10.9l0,1.232c0,2.864-1.333,8.363-1.836,10.337A9.287,9.287,0,0,0,28.9,47.405H20.546A9.287,9.287,0,0,0,12.137,39.2c-.5-1.974-1.836-7.473-1.836-10.337l0-1.232a42.393,42.393,0,0,1,1.008-10.9,1.03,1.03,0,0,0-1.422-1.172,29.159,29.159,0,0,1-5.961.882L2.194,7.793c3.525-1.753,11.1-5.235,14.651-5.672.7,1.391,2.724,4.075,7.879,4.075S31.9,3.511,32.6,2.121c3.554.435,11.126,3.917,14.651,5.672Z" transform="translate(0 -0.017)"/><path class="a" d="M200.237,128.017a4.063,4.063,0,0,0-2.06.562,4.064,4.064,0,0,0-2.06-.562A4.125,4.125,0,0,0,192,132.138c0,2.806,5.437,7.928,5.493,7.978a1.03,1.03,0,0,0,1.376,0c.056-.049,5.493-5.174,5.493-7.978A4.125,4.125,0,0,0,200.237,128.017Zm-2.06,9.9c-1.533-1.566-4.121-4.6-4.121-5.777a2.047,2.047,0,0,1,3.431-1.523,1.031,1.031,0,0,0,1.378,0,2.049,2.049,0,0,1,3.433,1.523C202.3,133.318,199.71,136.351,198.177,137.915Z" transform="translate(-173.453 -115.655)"/></g></svg>