<svg xmlns="http://www.w3.org/2000/svg" width="49.761" height="49.761" viewBox="0 0 49.761 49.761"><defs><style>.a{fill:#515151;}</style></defs><path class="a" d="M49.761,24.88a7.515,7.515,0,0,0-8.654-7.486V1.081a1.082,1.082,0,0,0-2.164,0V5.436A5.354,5.354,0,0,0,35.7,4.327H14.063a5.354,5.354,0,0,0-3.245,1.11V1.081a1.082,1.082,0,0,0-2.164,0V17.394A7.515,7.515,0,0,0,0,24.88a7.582,7.582,0,0,0,4.327,6.841V47.6H1.082a1.082,1.082,0,1,0,0,2.164h47.6a1.082,1.082,0,1,0,0-2.164H45.434V31.721a7.582,7.582,0,0,0,4.327-6.841ZM10.818,9.735A3.249,3.249,0,0,1,14.063,6.49H35.7a3.249,3.249,0,0,1,3.245,3.245v8.313a7.574,7.574,0,0,0-4.327,6.831v2.191a5.354,5.354,0,0,0-3.245-1.11H18.39a5.354,5.354,0,0,0-3.245,1.11V24.88a7.574,7.574,0,0,0-4.327-6.831Zm23.8,29.207H15.145V31.371a3.249,3.249,0,0,1,3.245-3.245H31.371a3.249,3.249,0,0,1,3.245,3.245ZM15.145,41.106H34.616V47.6H15.145ZM6.491,47.6V32.452H7.572a1.082,1.082,0,0,0,0-2.164,5.409,5.409,0,1,1,5.409-5.409V47.6Zm30.289,0V24.88a5.409,5.409,0,1,1,5.409,5.409,1.082,1.082,0,0,0,0,2.164H43.27V47.6Zm0,0" transform="translate(0 0)"/><path class="a" d="M49.493,176.122a1.08,1.08,0,0,0-.822,0,1.248,1.248,0,0,0-.357.227,1.1,1.1,0,0,0,0,1.536,1.248,1.248,0,0,0,.357.227,1.018,1.018,0,0,0,.822,0,1.248,1.248,0,0,0,.357-.227,1.1,1.1,0,0,0,0-1.536A1.248,1.248,0,0,0,49.493,176.122Zm0,0" transform="translate(-41.51 -152.236)"/><path class="a" d="M305.082,178.25a1.071,1.071,0,1,0-.768-.314A1.137,1.137,0,0,0,305.082,178.25Zm0,0" transform="translate(-262.893 -152.288)"/></svg>