<svg xmlns="http://www.w3.org/2000/svg" width="47.755" height="38.239" viewBox="0 0 47.755 38.239"><defs><style>.a{fill:#515151;stroke:#515151;stroke-width:0.3px;}</style></defs><g transform="translate(0.15 0.152)"><path class="a" d="M47.455,8.449v-6.7A1.248,1.248,0,0,0,46.233.5a1.232,1.232,0,0,0-.222.013c-.374.058-.864.133-1.451.22-1.761.259-4.535.639-7.733.981l-.02,0a127.924,127.924,0,0,1-13.079.8c-3.2,0-6.968-.207-11.2-.615a.695.695,0,0,0-.134,1.383c4.279.412,8.093.621,11.336.621a128.389,128.389,0,0,0,13.014-.789l9.324,5.715V27.4c0-.29-8.562-1.126-9.164-1.19a124.447,124.447,0,0,0-13.174-.81c-2.028,0-4,.078-6.006.2q-1.507.092-3.012.217-2.832.233-5.655.559-3.841.439-7.664,1.024V1.913c1.375.214,4.029.6,7.344.989l.453.052a.695.695,0,1,0,.158-1.381l-.451-.052C5.47,1.124,2.757.72,1.445.515A1.25,1.25,0,0,0,0,1.751V28.2s0,.007,0,.01v2.748A1.251,1.251,0,0,0,1.445,32.2a177.863,177.863,0,0,1,18.9-1.94,9.778,9.778,0,0,1,.882,3.731H13.567a1.159,1.159,0,0,0-1.158,1.158v2.131a1.159,1.159,0,0,0,1.158,1.158H33.889a1.159,1.159,0,0,0,1.158-1.158V35.147a1.159,1.159,0,0,0-1.158-1.158h-2.61a.695.695,0,0,0,0,1.39h2.379v1.668H13.8V35.379H28.106a.695.695,0,0,0,0-1.39H26.231a9.778,9.778,0,0,1,.882-3.731,177.783,177.783,0,0,1,18.9,1.94,1.251,1.251,0,0,0,1.443-1.236V28.215s0-.007,0-.01V8.456a.041.041,0,0,1,0-.007ZM38.991,2.872c2.224-.261,4.152-.526,5.567-.732.623-.091,1.133-.168,1.507-.226V7.208ZM24.839,33.989H22.616a11.9,11.9,0,0,0-.774-3.777c.635-.014,1.265-.022,1.886-.022s1.251.008,1.886.022a11.9,11.9,0,0,0-.775,3.777ZM46.065,30.8a164.1,164.1,0,0,0-22.337-2,164.17,164.17,0,0,0-22.338,2V28.808c2-.313,8.857-1.334,15.959-1.792l.106-.007q1.324-.085,2.65-.139c1.21-.049,2.41-.079,3.623-.079a144.463,144.463,0,0,1,21.115,1.831q.612.091,1.223.186Zm0,0" transform="translate(-0.001 -0.5)"/><path class="a" d="M386.653,176.3a.7.7,0,0,0-.968.17l-1.1,1.573a.695.695,0,0,0,1.138.8l1.1-1.573A.7.7,0,0,0,386.653,176.3Zm0,0" transform="translate(-348.822 -159.894)"/><path class="a" d="M397.169,185.763a.695.695,0,0,0,.968-.17l2.629-3.748a.695.695,0,0,0-1.138-.8L397,184.8A.7.7,0,0,0,397.169,185.763Zm0,0" transform="translate(-360.089 -164.045)"/><path class="a" d="M65.643,66.736a.7.7,0,0,0-.968.17l-.728,1.038a.695.695,0,1,0,1.138.8l.728-1.038A.7.7,0,0,0,65.643,66.736Zm0,0" transform="translate(-57.906 -60.482)"/><path class="a" d="M80.365,72.505l-1.674,2.387a.695.695,0,1,0,1.138.8L81.5,73.3a.695.695,0,0,0-1.138-.8Zm0,0" transform="translate(-71.283 -65.563)"/></g></svg>