<svg xmlns="http://www.w3.org/2000/svg" width="33.346" height="33.345" viewBox="0 0 33.346 33.345"><defs><style>.a{fill:none;}.b{fill:#515151;}</style></defs><path class="a" d="M0,0H33.346V33.345H0Z"/><path class="b" d="M27.313,10.725h1.476A2.779,2.779,0,0,1,31.567,13.5v5.557a2.779,2.779,0,0,1-2.779,2.779H27.313a11.117,11.117,0,0,1-11.029,9.726V28.787a8.336,8.336,0,0,0,8.337-8.336V12.114a8.337,8.337,0,0,0-16.673,0V21.84H3.779A2.779,2.779,0,0,1,1,19.061V13.5a2.779,2.779,0,0,1,2.779-2.779H5.254a11.117,11.117,0,0,1,22.059,0ZM3.779,13.5v5.557H5.168V13.5Zm23.62,0v5.557h1.389V13.5ZM10.393,21.541l1.473-2.356a8.345,8.345,0,0,0,8.837,0l1.473,2.356a11.124,11.124,0,0,1-11.782,0Z" transform="translate(0.389 0.39)"/></svg>