<svg xmlns="http://www.w3.org/2000/svg" width="43.439" height="42.661" viewBox="0 0 43.439 42.661"><defs><style>.a{fill:#515151;}</style></defs><path class="a" d="M5.93,2.471a5.08,5.08,0,1,0,5.08,5.08A5.085,5.085,0,0,0,5.93,2.471Z" transform="translate(-0.716 -2.471)"/><path class="a" d="M110.449,2.471a5.08,5.08,0,1,0,5.08,5.08A5.085,5.085,0,0,0,110.449,2.471Z" transform="translate(-88.795 -2.471)"/><path class="a" d="M216.659,12.63a5.08,5.08,0,1,0-5.08-5.08A5.086,5.086,0,0,0,216.659,12.63Z" transform="translate(-178.299 -2.471)"/><path class="a" d="M5.081,116.109A5.08,5.08,0,1,0,0,111.029,5.085,5.085,0,0,0,5.081,116.109Z" transform="translate(0 -89.673)"/><path class="a" d="M109.6,116.109a5.08,5.08,0,1,0-5.08-5.079A5.085,5.085,0,0,0,109.6,116.109Z" transform="translate(-88.084 -89.673)"/><path class="a" d="M215.814,116.109a5.08,5.08,0,1,0-5.082-5.079A5.084,5.084,0,0,0,215.814,116.109Z" transform="translate(-177.585 -89.673)"/><path class="a" d="M5.82,209.108a5.08,5.08,0,1,0,5.079,5.08A5.086,5.086,0,0,0,5.82,209.108Z" transform="translate(-0.623 -176.606)"/><path class="a" d="M110.345,209.108a5.08,5.08,0,1,0,5.079,5.08A5.086,5.086,0,0,0,110.345,209.108Z" transform="translate(-88.707 -176.606)"/><path class="a" d="M216.557,209.108a5.08,5.08,0,1,0,5.08,5.08A5.085,5.085,0,0,0,216.557,209.108Z" transform="translate(-178.213 -176.606)"/></svg>