<svg xmlns="http://www.w3.org/2000/svg" width="38.801" height="52.281" viewBox="0 0 38.801 52.281"><defs><style>.a{fill:#515151;}</style></defs><g transform="translate(0 0)"><path class="a" d="M241.021,326a1.021,1.021,0,1,0,1.021,1.021A1.022,1.022,0,0,0,241.021,326Zm0,0" transform="translate(-215.493 -292.711)"/><path class="a" d="M121.021,326a1.021,1.021,0,1,0,1.021,1.021A1.022,1.022,0,0,0,121.021,326Zm0,0" transform="translate(-107.747 -292.711)"/><path class="a" d="M9.908,27.121c-.08.107-.156.223-.234.34a60.127,60.127,0,0,0-3.427,6.127A83.257,83.257,0,0,0,.027,51.026a1.021,1.021,0,0,0,.994,1.254h36.76a1.021,1.021,0,0,0,.8-.388,1.106,1.106,0,0,0,.155-1.028A80.864,80.864,0,0,0,33.411,35.33a68.1,68.1,0,0,0-4.491-8.124,1.124,1.124,0,0,1-.037-.584,1.017,1.017,0,0,0,.118-.43,12.771,12.771,0,0,1,1-1.9,16.1,16.1,0,0,0,2.637-7.344,5.257,5.257,0,0,0,5.073-4.251,5.11,5.11,0,0,0-5.036-5.956H27.57a3.067,3.067,0,0,1-3.063-3.063V1.02A1.021,1.021,0,0,0,23.486,0H15.317A1.021,1.021,0,0,0,14.3,1.02V3.675a3.067,3.067,0,0,1-3.063,3.063H6.345a5.268,5.268,0,0,0-5.255,4.255A5.11,5.11,0,0,0,6.127,16.95h.038A16.151,16.151,0,0,0,8.8,24.28a12.864,12.864,0,0,1,1,1.915,1.016,1.016,0,0,0,.117.424,1.155,1.155,0,0,1-.01.5ZM36.484,50.238H2.321a81.23,81.23,0,0,1,5.761-15.75,51.314,51.314,0,0,1,3.5-6.2,1.018,1.018,0,0,0,.208-.349,3.019,3.019,0,0,0,.181-.781h2.06l-.7,2.968a1.021,1.021,0,0,0,1.988.466l.8-3.434H18.38v7.148a1.021,1.021,0,1,0,2.042,0V27.161h2.254l.8,3.434a1.021,1.021,0,0,0,1.988-.466l-.7-2.968h2.061a3.035,3.035,0,0,0,.194.816,73.488,73.488,0,0,1,9.455,22.261ZM35.7,12.366A3.189,3.189,0,0,1,32.676,14.9V13.886a3.067,3.067,0,0,0-3.063-3.063H28.592V8.781h4.084A3.065,3.065,0,0,1,35.7,12.366ZM16.338,3.675V2.041h6.127V3.675a5.114,5.114,0,0,0,4.084,5v2.344A11.153,11.153,0,0,0,19.4,15.694a11.151,11.151,0,0,0-7.148-4.672V8.678a5.114,5.114,0,0,0,4.084-5ZM3.107,11.322A3.211,3.211,0,0,1,6.346,8.781h3.866v2.042H9.19a3.067,3.067,0,0,0-3.063,3.063v1.021a3.065,3.065,0,0,1-3.02-3.585Zm5.063,4.607V13.886A1.022,1.022,0,0,1,9.19,12.865h1.021a8.888,8.888,0,0,1,8.227,5.446,1.021,1.021,0,0,0,1.926,0,8.889,8.889,0,0,1,8.227-5.446h1.021a1.022,1.022,0,0,1,1.021,1.021v2.042a13.588,13.588,0,0,1-2.39,7.323,17.778,17.778,0,0,0-1.011,1.868H11.57a17.97,17.97,0,0,0-1.013-1.876,13.621,13.621,0,0,1-2.388-7.315Zm0,0" transform="translate(0 0.001)"/></g></svg>