<svg xmlns="http://www.w3.org/2000/svg" width="49.014" height="52.281" viewBox="0 0 49.014 52.281"><defs><style>.a{fill:#515151;}</style></defs><path class="a" d="M251.021,200a1.021,1.021,0,1,0,1.021,1.021A1.022,1.022,0,0,0,251.021,200Zm0,0" transform="translate(-224.472 -179.577)"/><path class="a" d="M48.928,21.034,42.451,6.23A5.076,5.076,0,0,0,39.67,3.535l-3.513-1.4L32.111.107A1.028,1.028,0,0,0,31.654,0H17.343a1.027,1.027,0,0,0-.44.106L12.856,2.13l-3.512,1.4A5.074,5.074,0,0,0,6.563,6.229L.086,21.034a1.021,1.021,0,0,0,.44,1.3L9.19,27.149V51.26a1.021,1.021,0,0,0,1.021,1.021H38.8a1.021,1.021,0,0,0,1.021-1.021V27.149l8.665-4.814a1.021,1.021,0,0,0,.44-1.3Zm-24.421-8-3.351-6.7h6.7Zm7.6-10.643,2.463,1.232L32.12,15.078a1.021,1.021,0,0,1-1.246.777l-4.885-1.221ZM30,2.042,28.879,4.288H20.134L19.011,2.042ZM16.9,2.39l6.122,12.244-4.885,1.221a1.022,1.022,0,0,1-1.246-.777L14.439,3.622Zm-5.67,47.848V46.154H37.781v4.084ZM39.823,24.813v-5.08a1.021,1.021,0,1,0-2.042,0V44.112H11.232V19.733a1.021,1.021,0,1,0-2.042,0v5.08L2.329,21l6.1-13.953A3.045,3.045,0,0,1,10.1,5.431L12.53,4.46,14.9,15.508a3.063,3.063,0,0,0,3.738,2.329l5.872-1.468,5.871,1.467a3.063,3.063,0,0,0,3.739-2.33L36.484,4.461l2.427.971A3.044,3.044,0,0,1,40.58,7.048L46.685,21Zm0,0" transform="translate(0 0.001)"/><path class="a" d="M295.106,200h-4.084a1.021,1.021,0,0,0,0,2.042h4.084a1.021,1.021,0,1,0,0-2.042Zm0,0" transform="translate(-260.388 -179.577)"/></svg>