<svg xmlns="http://www.w3.org/2000/svg" width="52.435" height="41.719" viewBox="0 0 52.435 41.719"><defs><style>.a{fill:#515151;}</style></defs><g transform="translate(0)"><path class="a" d="M433.017,349.9a1.024,1.024,0,1,0-1.025-1.024A1.025,1.025,0,0,0,433.017,349.9Zm0,0" transform="translate(-387.751 -312.282)"/><path class="a" d="M.243,15.623a11.27,11.27,0,0,0,1.193,3.253,20.075,20.075,0,0,1,2.656,9.676V41.193a1.024,1.024,0,0,0,1.024,1.024h4.1a1.025,1.025,0,0,0,1.024-1.024V29.767a15.451,15.451,0,0,1,1.54-6.7l.094-.151A40.974,40.974,0,0,1,23.136,37.856a7.227,7.227,0,0,0,6.583,4.362H38.1a61.447,61.447,0,0,0,9.589-.491c1.175-.2,4.75-.817,4.75-3.606,0-1.577-1.307-3.867-3.329-5.833A15.173,15.173,0,0,0,41,28.092a1.025,1.025,0,0,0-.835.253,7.76,7.76,0,0,1-4.731,1.582,7.169,7.169,0,0,1-6.041-3.257,1.1,1.1,0,0,0-.065-.106L22.49,16.81A79.03,79.03,0,0,0,7.477.727a1.024,1.024,0,0,0-1.283,0A16.736,16.736,0,0,0,2.23,5.252,14.928,14.928,0,0,0,.237,15.592c0,.01,0,.021.006.031ZM8.188,29.767v10.4H6.14V28.551c0-.308-.01-.64-.029-.986A23.869,23.869,0,0,0,2.9,17.235a40.922,40.922,0,0,1,7.352,4.4,16.646,16.646,0,0,0-2.065,8.133ZM3.989,6.3A14.63,14.63,0,0,1,6.842,2.854,76.977,76.977,0,0,1,20.813,17.986l6.8,9.706a9.236,9.236,0,0,0,7.817,4.284,10.2,10.2,0,0,0,5.7-1.783,13.284,13.284,0,0,1,6.541,3.563c1.778,1.73,2.708,3.505,2.708,4.365,0,.878-1.658,1.348-3.049,1.587a59.989,59.989,0,0,1-9.241.461H29.719a5.178,5.178,0,0,1-4.708-3.138A42.988,42.988,0,0,0,2.156,14.671,13.077,13.077,0,0,1,3.989,6.3Zm0,0" transform="translate(0.001 -0.499)"/><path class="a" d="M281,349.9h11.471a1.024,1.024,0,0,0,0-2.049H281a1.024,1.024,0,1,0,0,2.049Zm0,0" transform="translate(-251.307 -312.282)"/></g></svg>