<svg xmlns="http://www.w3.org/2000/svg" width="34.778" height="34.778" viewBox="0 0 34.778 34.778"><defs><style>.a{fill:none;}.b{fill:#cbcbcb;}</style></defs><path class="a" d="M0,0H34.778V34.778H0Z"/><path class="b" d="M17.009,3.977a4.5,4.5,0,0,0-4.532,4.465v8.931a4.533,4.533,0,0,0,9.064,0V8.442A4.5,4.5,0,0,0,17.009,3.977Zm0-2.977a7.5,7.5,0,0,1,7.553,7.442v8.931a7.554,7.554,0,0,1-15.107,0V8.442A7.5,7.5,0,0,1,17.009,1ZM2.192,20.293l2.964-.585a12.127,12.127,0,0,0,23.705,0l2.964.585a15.157,15.157,0,0,1-29.633,0Z" transform="translate(0.381 0.174)"/></svg>