<svg xmlns="http://www.w3.org/2000/svg" width="52.182" height="42.694" viewBox="0 0 52.182 42.694"><defs><style>.a{fill:#515151;}</style></defs><g transform="translate(0 0)"><g transform="translate(27.277 29.649)"><ellipse class="a" cx="1.186" cy="1.186" rx="1.186" ry="1.186"/></g><g transform="translate(7.116 36.764)"><ellipse class="a" cx="1.186" cy="1.186" rx="1.186" ry="1.186"/></g><g transform="translate(4.744 0)"><path class="a" d="M90.426,46.545H50.1A3.494,3.494,0,0,0,46.546,50.1V61.962a1.186,1.186,0,1,0,2.372,0V50.1A1.12,1.12,0,0,1,50.1,48.917H90.426A1.12,1.12,0,0,1,91.612,50.1V78.566a1.12,1.12,0,0,1-1.186,1.186H61.963a1.186,1.186,0,1,0,0,2.372h2.372v3.558a1.12,1.12,0,0,1-1.186,1.186H61.963a1.186,1.186,0,1,0,0,2.372h16.6a1.186,1.186,0,1,0,0-2.372H77.381a1.12,1.12,0,0,1-1.186-1.186V82.123H90.426a3.494,3.494,0,0,0,3.558-3.558V50.1A3.5,3.5,0,0,0,90.426,46.545ZM66.47,86.867a3.508,3.508,0,0,0,.237-1.186V82.124h7.116v3.558a3.51,3.51,0,0,0,.237,1.186Z" transform="translate(-46.546 -46.545)"/></g><g transform="translate(18.975 26.091)"><path class="a" d="M213.459,302.545H187.368a1.186,1.186,0,1,0,0,2.372h26.091a1.186,1.186,0,0,0,0-2.372Z" transform="translate(-186.182 -302.545)"/></g><g transform="translate(0 18.975)"><path class="a" d="M13.045,232.727H3.558A3.494,3.494,0,0,0,0,236.285v16.6a3.494,3.494,0,0,0,3.558,3.558h9.488a3.494,3.494,0,0,0,3.558-3.558v-16.6A3.494,3.494,0,0,0,13.045,232.727Zm1.186,20.161a1.12,1.12,0,0,1-1.186,1.186H3.558a1.12,1.12,0,0,1-1.186-1.186v-16.6A1.12,1.12,0,0,1,3.558,235.1h9.488a1.12,1.12,0,0,1,1.186,1.186Z" transform="translate(0 -232.727)"/></g></g></svg>