<?xml version="1.0" encoding="utf-8"?>
<!-- Generator: Adobe Illustrator 16.0.0, SVG Export Plug-In . SVG Version: 6.00 Build 0)  -->
<!DOCTYPE svg PUBLIC "-//W3C//DTD SVG 1.1//EN" "http://www.w3.org/Graphics/SVG/1.1/DTD/svg11.dtd">
<svg version="1.1" id="Layer_1" xmlns="http://www.w3.org/2000/svg" xmlns:xlink="http://www.w3.org/1999/xlink" x="0px" y="0px"
	 width="37.586px" height="27.132px" viewBox="0 0 37.586 27.132" enable-background="new 0 0 37.586 27.132" xml:space="preserve">
<g>
	
		<linearGradient id="SVGID_1_" gradientUnits="userSpaceOnUse" x1="-3904.6475" y1="3037.542" x2="-3854.4644" y2="3017.5422" gradientTransform="matrix(4.984119e-010 -1 -1 -4.984119e-010 3054.291 -3874.0801)">
		<stop  offset="0" style="stop-color:#FF0025"/>
		<stop  offset="0.3471" style="stop-color:#FF0045"/>
		<stop  offset="0.6359" style="stop-color:#FF0065"/>
		<stop  offset="1" style="stop-color:#FF0080"/>
	</linearGradient>
	<path fill="url(#SVGID_1_)" d="M27.586,27.133c-0.657,0-1.307-0.064-1.951-0.193c-0.644-0.127-1.269-0.316-1.876-0.568
		c-0.606-0.252-1.183-0.559-1.729-0.924s-1.051-0.779-1.516-1.244c-0.464-0.463-0.879-0.969-1.244-1.516
		c-0.365-0.545-0.673-1.121-0.924-1.729c-0.251-0.605-0.441-1.232-0.569-1.875c-0.128-0.645-0.192-1.295-0.192-1.951v-27.52
		c0-0.658,0.064-1.309,0.192-1.951c0.128-0.645,0.318-1.27,0.569-1.877c0.251-0.605,0.559-1.182,0.924-1.729
		c0.365-0.545,0.779-1.051,1.244-1.516s0.97-0.879,1.516-1.244c0.546-0.363,1.122-0.672,1.729-0.924
		c0.607-0.25,1.232-0.439,1.876-0.568s1.294-0.191,1.951-0.191c0.656,0,1.307,0.063,1.951,0.191s1.27,0.318,1.876,0.568
		c0.606,0.252,1.183,0.561,1.729,0.924c0.546,0.365,1.051,0.779,1.515,1.244s0.879,0.971,1.244,1.516
		c0.365,0.547,0.673,1.123,0.924,1.729c0.251,0.607,0.441,1.232,0.569,1.877c0.128,0.643,0.192,1.293,0.192,1.951v27.52
		c0,0.656-0.064,1.307-0.192,1.951c-0.128,0.643-0.318,1.27-0.569,1.875c-0.251,0.607-0.56,1.184-0.924,1.729
		c-0.365,0.547-0.779,1.053-1.244,1.516c-0.464,0.465-0.969,0.879-1.515,1.244s-1.123,0.672-1.729,0.924s-1.232,0.441-1.876,0.568
		C28.893,27.068,28.242,27.133,27.586,27.133z"/>
	
		<linearGradient id="SVGID_2_" gradientUnits="userSpaceOnUse" x1="-3904.9053" y1="3037.1299" x2="-3854.7212" y2="3028.1299" gradientTransform="matrix(4.984119e-010 -1 -1 -4.984119e-010 3036.7051 -3887.8008)">
		<stop  offset="0" style="stop-color:#FF0025"/>
		<stop  offset="0.3471" style="stop-color:#FF0045"/>
		<stop  offset="0.6359" style="stop-color:#FF0065"/>
		<stop  offset="1" style="stop-color:#FF0080"/>
	</linearGradient>
	<path fill="url(#SVGID_2_)" d="M4.5,13.412c-0.295,0-0.588-0.029-0.878-0.086c-0.29-0.059-0.571-0.145-0.844-0.258
		C2.505,12.957,2.246,12.818,2,12.654c-0.246-0.164-0.473-0.352-0.682-0.561s-0.396-0.436-0.56-0.682s-0.303-0.506-0.416-0.777
		c-0.113-0.273-0.198-0.555-0.256-0.846C0.029,9.5,0,9.207,0,8.912v-38.52c0-0.297,0.029-0.59,0.086-0.879s0.143-0.57,0.256-0.844
		c0.113-0.273,0.252-0.533,0.416-0.777c0.164-0.246,0.351-0.475,0.56-0.684S1.754-33.186,2-33.35
		c0.246-0.164,0.505-0.303,0.778-0.416s0.554-0.199,0.844-0.256c0.29-0.059,0.583-0.086,0.878-0.086s0.588,0.027,0.878,0.086
		c0.29,0.057,0.571,0.143,0.844,0.256C6.495-33.653,6.754-33.514,7-33.35S7.473-33,7.682-32.792c0.209,0.209,0.396,0.438,0.56,0.684
		c0.164,0.244,0.303,0.504,0.416,0.777c0.113,0.273,0.199,0.555,0.256,0.844S9-29.905,9-29.608v38.52C9,9.207,8.971,9.5,8.914,9.789
		c-0.058,0.291-0.143,0.572-0.256,0.846c-0.113,0.271-0.251,0.531-0.416,0.777c-0.165,0.246-0.351,0.473-0.56,0.682
		C7.473,12.303,7.246,12.49,7,12.654s-0.505,0.303-0.778,0.414c-0.273,0.113-0.555,0.199-0.844,0.258
		C5.088,13.383,4.795,13.412,4.5,13.412z"/>
	<path fill="#FFFFFF" d="M-33.917-8v-202.001c0-0.525,0.051-1.045,0.154-1.561c0.103-0.516,0.254-1.016,0.455-1.501
		s0.448-0.946,0.739-1.383c0.292-0.437,0.624-0.841,0.995-1.212c0.371-0.372,0.775-0.703,1.212-0.995
		c0.437-0.292,0.897-0.538,1.383-0.739s0.985-0.353,1.501-0.455c0.515-0.103,1.035-0.154,1.561-0.154h1455
		c0.525,0,1.045,0.051,1.561,0.154s1.016,0.254,1.502,0.455c0.484,0.201,0.945,0.448,1.383,0.739
		c0.436,0.292,0.84,0.624,1.211,0.995c0.373,0.371,0.703,0.775,0.996,1.212c0.291,0.437,0.537,0.897,0.738,1.383
		s0.354,0.985,0.455,1.501c0.104,0.515,0.154,1.035,0.154,1.561V-8c0,0.525-0.051,1.045-0.152,1.561
		c-0.104,0.516-0.256,1.016-0.457,1.5c-0.201,0.486-0.447,0.947-0.738,1.383c-0.293,0.438-0.623,0.842-0.996,1.213
		c-0.371,0.371-0.775,0.703-1.211,0.996c-0.438,0.291-0.898,0.537-1.383,0.738c-0.486,0.201-0.986,0.354-1.502,0.455
		c-0.516,0.104-1.035,0.154-1.561,0.154h-1455c-0.525,0-1.045-0.051-1.561-0.154c-0.516-0.102-1.016-0.254-1.501-0.455
		s-0.946-0.447-1.383-0.738c-0.437-0.293-0.841-0.625-1.212-0.996c-0.372-0.371-0.703-0.775-0.995-1.213
		c-0.292-0.436-0.538-0.896-0.739-1.383c-0.201-0.484-0.353-0.984-0.455-1.5S-33.917-7.475-33.917-8z"/>
</g>
</svg>
