<svg xmlns="http://www.w3.org/2000/svg" width="48.052" height="48.879" viewBox="0 0 48.052 48.879"><defs><style>.a{fill:#515151;}</style></defs><path class="a" d="M279.048.529A1.693,1.693,0,0,0,277.822,0H257.571a1.686,1.686,0,0,0-1.683,1.784l2.051,35.431a6.449,6.449,0,0,0,2.3,4.574v4.163a2.82,2.82,0,0,0,2.817,2.816h9.287a2.82,2.82,0,0,0,2.816-2.816v-4.17a6.438,6.438,0,0,0,2.3-4.568l2.051-35.431a1.692,1.692,0,0,0-.457-1.255Zm-21.648,1a.233.233,0,0,1,.171-.074h20.251a.235.235,0,0,1,.235.248l-.148,2.56H257.485l-.148-2.56a.231.231,0,0,1,.064-.175Zm12.478,45.791h-4.365V47.3a2.058,2.058,0,0,1,2.055-2.055h.254a2.057,2.057,0,0,1,2.056,2.055ZM276,37.13a5,5,0,0,1-4.991,4.711h-4.351a.726.726,0,0,0,0,1.451h4.351a6.419,6.419,0,0,0,2.692-.588v3.248a1.366,1.366,0,0,1-1.365,1.365h-1.01V47.3a3.511,3.511,0,0,0-3.507-3.507h-.254a3.511,3.511,0,0,0-3.507,3.507v.012h-1.01a1.366,1.366,0,0,1-1.365-1.365V42.705a6.451,6.451,0,0,0,1.442.466.726.726,0,1,0,.28-1.424,5,5,0,0,1-4.022-4.617L257.569,5.711h20.256Zm0,0" transform="translate(-231.457)"/><path class="a" d="M22.206,299.16H2.467A2.47,2.47,0,0,0,0,301.627v3.628a.726.726,0,0,0,.726.726h22.5v3.338a8.718,8.718,0,0,1-8.708,8.708H10.16a8.718,8.718,0,0,1-8.708-8.708v-.74a.726.726,0,1,0-1.451,0v.74a10.171,10.171,0,0,0,10.16,10.16h4.354a10.171,10.171,0,0,0,10.16-10.16v-7.692a2.47,2.47,0,0,0-2.468-2.467ZM1.452,304.53v-2.9a1.017,1.017,0,0,1,1.016-1.016H22.206a1.017,1.017,0,0,1,1.016,1.016v2.9Zm0,0" transform="translate(0 -270.6)"/><path class="a" d="M69.612,394.533a2.661,2.661,0,0,0,0-5.322H61.29a2.661,2.661,0,1,0,0,5.322Zm-9.531-2.661a1.211,1.211,0,0,1,1.21-1.21h8.322a1.21,1.21,0,0,1,0,2.419H61.29A1.211,1.211,0,0,1,60.08,391.872Zm0,0" transform="translate(-53.032 -352.054)"/><path class="a" d="M310.3,91.223a7.411,7.411,0,0,0-7.4,7.4,7.33,7.33,0,0,0,.784,3.319.726.726,0,0,0,1.3-.652,5.885,5.885,0,0,1-.63-2.667,5.949,5.949,0,1,1,2.623,4.934.726.726,0,1,0-.813,1.2,7.4,7.4,0,1,0,4.14-13.539Zm0,0" transform="translate(-273.982 -82.514)"/></svg>