<svg xmlns="http://www.w3.org/2000/svg" width="33.345" height="33.343" viewBox="0 0 33.345 33.343"><defs><style>.a{fill:none;}.b{fill:#515151;}</style></defs><path class="a" d="M0,0H33.345V33.343H0Z"/><path class="b" d="M7.863,2H23.146a1.389,1.389,0,0,1,1.111.556l3.751,5V28.4a1.389,1.389,0,0,1-1.389,1.389H4.389A1.389,1.389,0,0,1,3,28.4V7.557l3.751-5A1.389,1.389,0,0,1,7.863,2ZM25.23,10.336H5.779V27.007H25.23Zm-.695-2.779L22.451,4.779H8.557L6.473,7.557Zm-13.2,5.557v2.779a4.168,4.168,0,0,0,8.336,0V13.114h2.779v2.779a6.947,6.947,0,0,1-13.894,0V13.114Z" transform="translate(1.168 0.779)"/></svg>