<svg xmlns="http://www.w3.org/2000/svg" width="49.182" height="49.182" viewBox="0 0 49.182 49.182"><defs><style>.a{fill:#515151;}</style></defs><g transform="translate(0 0)"><path class="a" d="M48.2,28.925,20.256.983a3.352,3.352,0,0,0-4.743,0L.983,15.512a3.352,3.352,0,0,0,0,4.743L28.925,48.2a3.352,3.352,0,0,0,4.743,0L48.2,33.669a3.352,3.352,0,0,0,0-4.744ZM2.562,18.673a1.117,1.117,0,0,1,0-1.58L17.1,2.562a1.117,1.117,0,0,1,1.58,0L43.034,26.922,26.922,43.034ZM46.619,32.088,32.087,46.62a1.143,1.143,0,0,1-1.58,0l-2-2L44.615,28.5l2,2h0a1.117,1.117,0,0,1,0,1.58Z" transform="translate(0 0)"/><path class="a" d="M343.9,341.661l-2.235,2.235a1.118,1.118,0,1,0,1.581,1.581l2.235-2.236a1.118,1.118,0,0,0-1.581-1.581Z" transform="translate(-305.565 -305.565)"/><path class="a" d="M87.9,85.661,85.661,87.9a1.118,1.118,0,1,0,1.581,1.581l2.235-2.235A1.118,1.118,0,0,0,87.9,85.661Z" transform="translate(-76.392 -76.391)"/><ellipse class="a" cx="1.118" cy="1.118" rx="1.118" ry="1.118" transform="translate(16.766 3.353)"/><path class="a" d="M55.421,326.471a18.817,18.817,0,0,1-8.493-8.493,1.118,1.118,0,1,0-2,1,21.062,21.062,0,0,0,9.493,9.493,1.118,1.118,0,0,0,1-2Z" transform="translate(-40.114 -284.103)"/><path class="a" d="M19.281,347.544A23.214,23.214,0,0,1,8.79,337.053a1.118,1.118,0,0,0-2,1,25.458,25.458,0,0,0,11.491,11.491,1.118,1.118,0,0,0,1-2Z" transform="translate(-5.973 -301.18)"/><path class="a" d="M337.051,8.8a23.215,23.215,0,0,1,10.491,10.491,1.118,1.118,0,0,0,2-1A25.459,25.459,0,0,0,338.051,6.8a1.118,1.118,0,1,0-1,2Z" transform="translate(-301.178 -5.981)"/><path class="a" d="M317.979,46.939a18.817,18.817,0,0,1,8.493,8.493,1.118,1.118,0,1,0,2-1,21.062,21.062,0,0,0-9.493-9.493,1.118,1.118,0,0,0-1,2Z" transform="translate(-284.104 -40.126)"/></g></svg>